<?xml version="1.0" encoding="UTF-8" standalone="no"?>
<!DOCTYPE svg PUBLIC "-//W3C//DTD SVG 1.1//EN" "http://www.w3.org/Graphics/SVG/1.1/DTD/svg11.dtd">
<svg width="100%" height="100%" viewBox="0 0 565 762" version="1.1" xmlns="http://www.w3.org/2000/svg" xmlns:xlink="http://www.w3.org/1999/xlink" xml:space="preserve" xmlns:serif="http://www.serif.com/" style="fill-rule:evenodd;clip-rule:evenodd;stroke-linejoin:round;stroke-miterlimit:2;">
    <g transform="matrix(1,0,0,1,-16085.9,0)">
        <g id="fs" transform="matrix(1.52458,0,0,1.52458,-8562.7,630.213)">
            <rect x="16167.5" y="-413.368" width="369.958" height="499.667" style="fill:none;"/>
            <g transform="matrix(7.38729,0,0,7.38729,16439,-192.323)">
                <path d="M0,7.794C-7.443,4.698 -9.825,3.865 -9.766,0.589C-9.766,-2.388 -7.265,-4.413 -4.347,-4.413C0,-4.413 0.774,-1.019 1.132,1.006L9.886,1.006C9.528,-8.759 1.786,-11.855 -4.049,-11.855C-6.251,-11.855 -8.48,-11.418 -10.513,-10.569L-10.513,-26.083L-33.915,-26.083L-33.915,-18.284L-19.386,-18.284L-19.386,-7.743L-33.559,-7.743L-33.559,0.057L-19.386,0.057L-19.386,17.982L-10.513,17.982L-10.513,12.312C-9.415,12.81 -8.399,13.173 -7.622,13.451C-1.488,15.893 1.668,16.846 1.668,20.598C1.668,23.694 -0.952,26.432 -4.347,26.432C-6.252,26.432 -10.242,25.301 -10.54,19.346L-19.354,19.346C-19.412,27.862 -14.231,33.877 -4.228,33.877C6.134,33.877 10.48,27.266 10.48,20.18C10.48,13.928 6.729,10.713 0,7.794" style="fill:rgb(255,0,0);fill-rule:nonzero;"/>
            </g>
        </g>
    </g>
</svg>
